<svg width="1814" height="365" viewBox="0 0 1814 365" fill="none" xmlns="http://www.w3.org/2000/svg">
<path d="M209.825 16C212.895 43.105 210.298 56.8217 187.552 75.0753C173.323 87.4378 165.897 93.0144 156.926 113.119C149.192 67.6522 170.537 50.9503 170.537 50.9503C170.537 50.9503 197.76 30.5369 209.825 16Z" fill="url(#paint0_linear_3165_342)"/>
<path d="M138.223 63.6312C155.238 104.767 146.289 142.314 124.921 162.915C112.263 183.86 102.648 183.947 105.918 228.435C70.4753 181.163 105.918 136.934 105.918 136.934C105.918 136.934 131.108 120.541 138.223 63.6312Z" fill="url(#paint1_linear_3165_342)"/>
<path d="M189.885 343.234C189.885 317.253 178.152 299.192 156.784 278.591C131.108 241.476 131.241 212.043 134.511 167.554C84.7047 256.322 144.41 292.819 144.41 292.819C144.41 292.819 171.942 310.449 189.885 343.234Z" fill="url(#paint2_linear_3165_342)"/>
<path d="M367.885 16C364.815 43.105 367.411 56.8217 390.158 75.0753C404.387 87.4378 411.813 93.0144 420.784 113.119C428.518 67.6522 407.172 50.9503 407.172 50.9503C407.172 50.9503 379.949 30.5369 367.885 16Z" fill="url(#paint3_linear_3165_342)"/>
<path d="M77.8667 192.607C82.2302 217.042 86.914 227.46 104.194 240.857L120.281 284.777C90.5827 273.024 52.8417 248.28 77.8667 192.607Z" fill="url(#paint4_linear_3165_342)"/>
<path d="M68 264.673C76.3655 277.009 88.8747 284.41 128.633 298.695C153.241 312.764 160.806 321.583 165.446 338.594C150.288 327.151 142.274 325.759 111.928 318.181C83.3486 306.313 70.5368 297.122 68 264.673Z" fill="url(#paint5_linear_3165_342)"/>
<path d="M439.531 63.6312C422.517 104.767 431.465 142.314 452.833 162.915C465.492 183.86 475.107 183.947 471.837 228.435C507.279 181.163 471.837 136.934 471.837 136.934C471.837 136.934 446.646 120.541 439.531 63.6312Z" fill="url(#paint6_linear_3165_342)"/>
<path d="M387.87 343.234C387.87 317.253 399.603 299.192 420.971 278.591C446.647 241.476 446.514 212.043 443.245 167.554C493.051 256.322 433.345 292.819 433.345 292.819C433.345 292.819 405.813 310.449 387.87 343.234Z" fill="url(#paint7_linear_3165_342)"/>
<path d="M499.889 192.607C495.525 217.042 490.841 227.46 473.561 240.857L457.475 284.777C487.172 273.024 524.913 248.28 499.889 192.607Z" fill="url(#paint8_linear_3165_342)"/>
<path d="M509.756 264.673C501.39 277.009 488.881 284.41 449.122 298.695C424.514 312.764 416.95 321.583 412.31 338.594C427.468 327.151 435.482 325.759 465.828 318.181C494.407 306.313 507.219 297.122 509.756 264.673Z" fill="url(#paint9_linear_3165_342)"/>
<path d="M322.289 68.2704C427.16 97.0348 450.671 202.814 420.33 267.883C389.989 332.951 319.815 354.313 272.388 348.079C182.554 336.273 109.764 244.259 161.802 144.153C113.476 258.178 221.75 384.679 351.678 327.151C472.635 259.106 435.513 114.974 322.289 68.2704Z" fill="url(#paint10_linear_3165_342)"/>
<path d="M176.833 94.4904C175.729 94.7267 176.012 96.3201 177.14 96.2806C314.299 91.4735 350.999 141.435 287.993 172.276C286.976 172.774 287.492 174.572 288.597 174.322C333.266 164.208 363.262 150.287 359.102 126.11C354.766 100.917 280.88 72.2329 176.833 94.4904Z" fill="url(#paint11_linear_3165_342)"/>
<path d="M250.701 144.722C256.44 144.883 261.783 147.689 265.17 152.325L375.266 302.98C377.474 306.003 373.416 309.617 370.668 307.076L202.97 152.069C199.613 148.966 201.898 143.361 206.468 143.488L250.701 144.722Z" fill="url(#paint12_linear_3165_342)"/>
<path d="M222.773 82.3804C220.627 82.4719 220.038 79.5924 222.095 78.9738C278.631 61.9769 330.48 72.3296 368.227 112.013C368.525 112.326 368.705 112.737 368.733 113.168L369.577 126.108C369.603 126.511 369.761 126.894 370.025 127.2L373.465 131.183C374.383 132.246 373.834 133.903 372.462 134.207L366.452 135.543C365.847 135.677 365.794 136.521 366.379 136.729L372.702 138.987C372.901 139.058 373.049 139.225 373.097 139.43L373.424 140.848C373.692 142.011 372.809 143.122 371.615 143.122H368.601C367.493 143.122 366.631 144.086 366.773 145.184C367.997 154.616 369.783 158.101 373.949 161.37C373.949 161.37 374.258 148.998 375.495 148.07C376.733 147.142 383.848 149.926 375.495 136.008C378.589 136.008 377.725 132.839 376.733 129.822L383.848 131.678C395.261 149.805 398.836 158.735 403.028 183.948C404.946 196.774 404.603 202.692 403.153 211.924C403.074 212.427 402.788 212.876 402.371 213.168C398.125 216.154 395.677 218.724 392.535 223.444C391.876 224.435 390.472 224.594 389.631 223.753L381.705 215.828C381.3 215.424 381.11 214.856 381.158 214.285C381.516 209.977 380.398 206.774 376.733 200.65C377.548 189.057 375.733 176.317 372.333 171.1C372.01 170.603 371.433 170.367 370.841 170.353C366.323 170.243 363.949 167.48 360.337 160.133L356.412 150.882C356.16 150.289 356.255 149.581 356.619 149.049C383.949 109.092 324.787 78.0354 222.773 82.3804Z" fill="url(#paint13_linear_3165_342)"/>
<path d="M229.482 101.364C217.734 113.565 212.761 118.255 209.374 119.303L211.333 115.385C211.895 114.263 211.203 112.918 209.963 112.722L207.393 112.316C206.881 112.235 206.426 111.944 206.139 111.513L203.496 107.55C210.528 100.373 216.557 99.5365 229.482 101.364Z" fill="url(#paint14_linear_3165_342)"/>
<path d="M273.552 124.516C274.028 124.721 274.582 124.628 274.963 124.277C280.678 118.999 286.087 118.698 303.107 128.893C311.592 135.566 310.234 137.87 306.314 141.357C306.047 141.594 305.892 141.933 305.892 142.29V155.226C305.892 155.591 305.727 155.941 305.446 156.173C299.346 161.212 297.755 160.557 296.111 157.567C296.032 157.424 295.926 157.294 295.8 157.19C293.023 154.888 291.638 153.078 291.37 146.419C291.357 146.091 291.217 145.777 290.977 145.553C285.958 140.889 282.399 138.665 275.509 135.499C275.35 135.426 275.205 135.321 275.093 135.186C274.146 134.058 273.576 132.948 272.836 130.857C272.628 130.267 271.996 129.883 271.468 130.218C270.227 131.007 269.532 132.847 268.767 136.38C268.601 137.144 267.778 137.594 267.075 137.251C265.577 136.519 264.471 135.615 263.019 133.134C262.935 132.99 262.881 132.828 262.863 132.662C262.511 129.539 262.582 127.766 263.627 125.31C263.747 125.027 263.977 124.803 264.262 124.686C267.984 123.152 270.215 123.082 273.552 124.516Z" fill="url(#paint15_linear_3165_342)"/>
<path d="M211.231 122.088C219.406 121.001 224.205 120.281 224.843 123.016C224.836 128.67 225.98 131.627 228.555 134.769L231.958 138.79C234.95 141.76 223.485 141.259 204.426 140.336C197.338 137.583 192.663 136.015 193.289 133.532L199.167 134.769C201.351 127.016 203.215 124.561 209.066 127.655L211.231 122.088Z" fill="url(#paint16_linear_3165_342)"/>
<path d="M243.795 134.221C244.137 134.177 244.482 134.277 244.747 134.498L249.13 138.15C250.019 138.89 249.495 140.337 248.338 140.337H241.849C241.463 140.337 241.1 140.158 240.866 139.851L238.517 136.78C237.939 136.024 238.396 134.925 239.34 134.802L243.795 134.221Z" fill="url(#paint17_linear_3165_342)"/>
<path d="M263.504 141.419C263.908 141.318 264.338 141.358 264.719 141.528C274.115 145.737 277.739 147.228 277.739 151.47C280.524 151.47 283.617 153.635 287.02 158.274C286.228 164.344 283.634 164.48 280.969 165.033C280.149 165.204 279.272 164.902 278.805 164.207C272.504 154.815 268.275 149.156 261.464 144.107C260.602 143.468 260.847 142.083 261.889 141.823L263.504 141.419Z" fill="url(#paint18_linear_3165_342)"/>
<path d="M290.761 179.708C290.282 179.042 290.571 178.097 291.351 177.841C292.419 177.489 293.348 177.253 294.383 177.15C296.003 176.988 297.52 177.833 298.588 179.062L310.439 192.715C310.753 193.077 310.553 193.644 310.079 193.716C308.116 194.012 306.705 194.018 304.653 193.653C304.253 193.582 303.889 193.372 303.627 193.062C302.27 191.458 301.455 190.102 300.714 188.029C300.342 186.987 299.058 186.57 298.193 187.261C297.502 187.814 296.488 187.675 295.971 186.956L290.761 179.708Z" fill="url(#paint19_linear_3165_342)"/>
<path d="M205.353 164.608C205.353 163.257 206.963 162.556 207.953 163.475L275.267 226.012C265.67 231.826 264.493 235.963 268.381 244.93C268.56 245.342 268.26 245.807 267.811 245.807H265.686C265.486 245.807 265.299 245.71 265.182 245.548L259.18 237.147L248.261 238.057C248.117 238.068 247.971 238.063 247.828 238.042L237.835 236.528C225.152 247.353 232.576 257.869 242.785 257.869C245.348 253.641 247.391 253.503 251.446 254.776C251.135 258.375 250.472 260.93 249.47 263.747C249.139 264.678 249.957 265.627 250.931 265.463C257.246 264.401 258.429 266.021 261.964 268.385C263.202 272.715 260.968 274.662 261.346 277.046C267.533 282.824 276.195 280.139 276.813 282.613C264.93 283.154 259.725 282.795 255.345 280.418C255.028 280.246 254.813 279.929 254.741 279.576C252.75 269.823 246.216 266.923 226.698 260.962C224.439 259.129 222.86 258.376 220.313 255.597C219.833 255.075 219.196 254.728 218.516 254.526C216.371 253.889 215.025 252.563 212.773 249.932C212.372 249.463 212.119 248.881 212.065 248.266C211.943 246.891 211.919 245.616 212.086 243.101C212.13 242.447 211.97 241.794 211.632 241.233C207.875 234.993 206.56 230.802 205.044 223.228L203.314 222.652C202.855 222.499 202.406 222.913 202.52 223.384C204.202 230.333 205.42 234.176 206.44 237.126C206.647 237.724 205.988 238.164 205.565 237.692C195.592 226.558 188.918 194.86 205.353 179.309V164.608Z" fill="url(#paint20_linear_3165_342)"/>
<path d="M278.869 256.44C279.508 256.68 279.994 257.248 279.989 257.931C279.967 261.137 277.247 261.006 274.339 260.229C272.941 257.285 266.626 255.331 260.289 254.017C259.559 253.865 259.643 252.822 260.39 252.836C269.912 253.015 274.363 254.752 278.869 256.44Z" fill="url(#paint21_linear_3165_342)"/>
<path d="M288.701 257.24C288.815 257.247 288.927 257.287 289.02 257.354C291.267 258.967 292.166 260.095 292.968 261.33C293.222 261.721 292.953 262.24 292.488 262.269C286.621 262.641 283.51 262.428 282.196 261.099C282.111 261.013 282.063 260.899 282.048 260.78L281.816 258.926C281.784 258.664 281.921 258.409 282.16 258.298C284.273 257.313 285.805 257.063 288.701 257.24Z" fill="url(#paint22_linear_3165_342)"/>
<path d="M331.568 277.353L353.43 297.39C353.699 297.636 353.889 297.955 353.977 298.308L354.801 301.604C354.971 302.285 354.734 303.013 354.199 303.468C331.547 322.755 317.343 328.641 286.77 333.512C285.439 333.724 284.338 332.486 284.7 331.188L287.421 321.44C287.531 321.045 287.235 320.655 286.825 320.655H284.475C284.126 320.655 283.792 320.508 283.562 320.247C279.669 315.862 280.264 314.689 265.112 304.694C264.133 304.049 263.587 302.903 263.758 301.743C264.612 295.938 266.057 293.399 270.286 293.33C271.323 293.313 272.257 292.591 272.361 291.559L273.41 281.065C280.454 274.88 284.099 274.035 290.115 276.735C303.141 273.446 309.576 273.206 318.575 277.353H331.568Z" fill="url(#paint23_linear_3165_342)"/>
<path d="M649.955 255.394L618.401 205.845C617.412 205.969 615.927 206.031 613.947 206.031H594.086V255.394H576.082V121.222H611.905C621.062 121.222 629.229 122.831 636.406 126.047C643.583 129.264 649.213 134.027 653.296 140.337C657.38 146.523 659.422 154.008 659.422 162.792C659.422 171.081 657.566 178.689 653.853 185.618C650.265 192.546 644.696 197.804 637.148 201.392L670.93 255.394H649.955ZM613.576 188.587C623.227 188.587 630.157 186.051 634.364 180.978C638.695 175.906 640.86 170.091 640.86 163.534C640.86 159.575 639.932 155.678 638.076 151.843C636.344 148.007 633.498 144.853 629.538 142.378C625.702 139.78 620.814 138.481 614.875 138.481H594.086V188.587H613.576ZM716.621 121.222V255.394H698.617V121.222H716.621ZM853.726 245.373C849.395 248.219 843.889 250.879 837.207 253.353C830.648 255.704 823.471 256.879 815.676 256.879C801.94 256.879 789.814 253.848 779.296 247.786C768.902 241.724 760.858 233.558 755.166 223.29C749.598 213.021 746.814 201.701 746.814 189.329C746.814 176.091 749.66 164.214 755.352 153.698C761.044 143.059 768.902 134.77 778.925 128.831C789.071 122.769 800.517 119.738 813.263 119.738C820.811 119.738 827.864 120.728 834.422 122.707C840.981 124.687 846.858 127.285 852.055 130.501L844.817 147.389C834.546 140.461 824.214 136.997 813.819 136.997C805.158 136.997 797.114 139.285 789.69 143.863C782.389 148.44 776.512 154.688 772.057 162.606C767.726 170.4 765.56 178.999 765.56 188.401C765.56 198.051 767.54 206.773 771.5 214.568C775.584 222.362 781.337 228.486 788.762 232.94C796.31 237.27 804.972 239.435 814.748 239.435C826.75 239.435 837.207 236.033 846.116 229.228L853.726 245.373ZM990.398 255.394H972.394V196.567H902.047V255.394H884.042V121.222H902.047V179.308H972.394V121.222H990.398V255.394ZM1162.51 116.954V255.394H1144.69V168.545L1095.32 238.507H1094.95L1046.5 170.957V255.394H1029.05V116.954H1029.24L1095.32 210.485L1162.32 116.954H1162.51ZM1217.41 207.887C1217.41 213.825 1218.83 219.207 1221.68 224.032C1224.52 228.733 1228.36 232.507 1233.18 235.352C1238.13 238.074 1243.58 239.435 1249.52 239.435C1255.7 239.435 1261.27 238.074 1266.22 235.352C1271.3 232.63 1275.26 228.857 1278.1 224.032C1280.95 219.207 1282.37 213.825 1282.37 207.887V121.222H1300V208.444C1300 217.97 1297.78 226.444 1293.32 233.868C1288.87 241.167 1282.8 246.858 1275.13 250.941C1267.46 254.9 1258.92 256.879 1249.52 256.879C1240.24 256.879 1231.76 254.9 1224.09 250.941C1216.42 246.858 1210.35 241.167 1205.9 233.868C1201.57 226.444 1199.4 217.97 1199.4 208.444V121.222H1217.41V207.887ZM1453.95 121.222V259.848H1453.39L1354.83 159.822L1355.21 255.394H1337.02V117.14H1337.94L1436.32 218.279L1435.95 121.222H1453.95Z" fill="url(#paint24_linear_3165_342)"/>
<path d="M1593.31 117.182V259H1563.33V117.182H1593.31ZM1646.09 117.182L1674.69 165.516H1675.8L1704.54 117.182H1738.4L1695.12 188.091L1739.37 259H1704.88L1675.8 210.596H1674.69L1645.61 259H1611.26L1655.65 188.091L1612.09 117.182H1646.09Z" fill="url(#paint25_linear_3165_342)"/>
<defs>
<linearGradient id="paint0_linear_3165_342" x1="183.057" y1="16" x2="183.057" y2="113.119" gradientUnits="userSpaceOnUse">
<stop stop-color="#0DB08C"/>
<stop offset="1" stop-color="#4B969B"/>
</linearGradient>
<linearGradient id="paint1_linear_3165_342" x1="208.5" y1="16" x2="118.651" y2="228.435" gradientUnits="userSpaceOnUse">
<stop stop-color="#0DB08C"/>
<stop offset="1" stop-color="#25989C"/>
</linearGradient>
<linearGradient id="paint2_linear_3165_342" x1="152.282" y1="343.234" x2="152" y2="241.5" gradientUnits="userSpaceOnUse">
<stop stop-color="#377376"/>
<stop offset="1" stop-color="#4B969B"/>
</linearGradient>
<linearGradient id="paint3_linear_3165_342" x1="394.653" y1="16" x2="394.653" y2="113.119" gradientUnits="userSpaceOnUse">
<stop stop-color="#0DB08C"/>
<stop offset="1" stop-color="#4B969B"/>
</linearGradient>
<linearGradient id="paint4_linear_3165_342" x1="95" y1="226" x2="94.9897" y2="284.777" gradientUnits="userSpaceOnUse">
<stop stop-color="#4B969B"/>
<stop offset="1" stop-color="#377376"/>
</linearGradient>
<linearGradient id="paint5_linear_3165_342" x1="116.723" y1="264.673" x2="116.723" y2="338.594" gradientUnits="userSpaceOnUse">
<stop stop-color="#4B969B"/>
<stop offset="1" stop-color="#377376"/>
</linearGradient>
<linearGradient id="paint6_linear_3165_342" x1="369" y1="17.5" x2="459.103" y2="228.435" gradientUnits="userSpaceOnUse">
<stop stop-color="#0DB08C"/>
<stop offset="1" stop-color="#25989C"/>
</linearGradient>
<linearGradient id="paint7_linear_3165_342" x1="425.473" y1="343.234" x2="425" y2="226.5" gradientUnits="userSpaceOnUse">
<stop stop-color="#377376"/>
<stop offset="1" stop-color="#25989C"/>
</linearGradient>
<linearGradient id="paint8_linear_3165_342" x1="483" y1="231" x2="482.765" y2="284.777" gradientUnits="userSpaceOnUse">
<stop stop-color="#25989C"/>
<stop offset="1" stop-color="#377376"/>
</linearGradient>
<linearGradient id="paint9_linear_3165_342" x1="461.033" y1="264.673" x2="461.033" y2="338.594" gradientUnits="userSpaceOnUse">
<stop stop-color="#4B969B"/>
<stop offset="1" stop-color="#377376"/>
</linearGradient>
<linearGradient id="paint10_linear_3165_342" x1="221.5" y1="88" x2="373.959" y2="320.027" gradientUnits="userSpaceOnUse">
<stop stop-color="#0DB08C"/>
<stop offset="1" stop-color="#4B969B"/>
</linearGradient>
<linearGradient id="paint11_linear_3165_342" x1="268" y1="14" x2="268" y2="197.5" gradientUnits="userSpaceOnUse">
<stop stop-color="#0DB08C"/>
<stop offset="1" stop-color="#25989C"/>
</linearGradient>
<linearGradient id="paint12_linear_3165_342" x1="266.5" y1="83.5" x2="300.5" y2="296" gradientUnits="userSpaceOnUse">
<stop stop-color="#0DB08C"/>
<stop offset="1" stop-color="#4B969B"/>
</linearGradient>
<linearGradient id="paint13_linear_3165_342" x1="312.588" y1="71.11" x2="312.588" y2="224.297" gradientUnits="userSpaceOnUse">
<stop stop-color="#377376"/>
<stop offset="1" stop-color="#25989C"/>
</linearGradient>
<linearGradient id="paint14_linear_3165_342" x1="216.489" y1="100.536" x2="216.489" y2="119.303" gradientUnits="userSpaceOnUse">
<stop stop-color="#377376"/>
<stop offset="1" stop-color="#25989C"/>
</linearGradient>
<linearGradient id="paint15_linear_3165_342" x1="286.03" y1="120.668" x2="286.03" y2="159.887" gradientUnits="userSpaceOnUse">
<stop stop-color="#377376"/>
<stop offset="1" stop-color="#25989C"/>
</linearGradient>
<linearGradient id="paint16_linear_3165_342" x1="212.832" y1="121.118" x2="212.832" y2="141.05" gradientUnits="userSpaceOnUse">
<stop stop-color="#377376"/>
<stop offset="1" stop-color="#25989C"/>
</linearGradient>
<linearGradient id="paint17_linear_3165_342" x1="243.919" y1="134.211" x2="243.919" y2="140.337" gradientUnits="userSpaceOnUse">
<stop stop-color="#377376"/>
<stop offset="1" stop-color="#25989C"/>
</linearGradient>
<linearGradient id="paint18_linear_3165_342" x1="273.98" y1="141.364" x2="273.98" y2="165.08" gradientUnits="userSpaceOnUse">
<stop stop-color="#377376"/>
<stop offset="1" stop-color="#25989C"/>
</linearGradient>
<linearGradient id="paint19_linear_3165_342" x1="300.559" y1="177.13" x2="300.559" y2="193.933" gradientUnits="userSpaceOnUse">
<stop stop-color="#377376"/>
<stop offset="1" stop-color="#25989C"/>
</linearGradient>
<linearGradient id="paint20_linear_3165_342" x1="236.103" y1="163.059" x2="236.103" y2="282.833" gradientUnits="userSpaceOnUse">
<stop stop-color="#377376"/>
<stop offset="1" stop-color="#25989C"/>
</linearGradient>
<linearGradient id="paint21_linear_3165_342" x1="269.887" y1="252.836" x2="269.887" y2="260.692" gradientUnits="userSpaceOnUse">
<stop stop-color="#377376"/>
<stop offset="1" stop-color="#25989C"/>
</linearGradient>
<linearGradient id="paint22_linear_3165_342" x1="287.439" y1="257.188" x2="287.439" y2="262.432" gradientUnits="userSpaceOnUse">
<stop stop-color="#377376"/>
<stop offset="1" stop-color="#25989C"/>
</linearGradient>
<linearGradient id="paint23_linear_3165_342" x1="309.291" y1="274.254" x2="309.291" y2="333.536" gradientUnits="userSpaceOnUse">
<stop stop-color="#377376"/>
<stop offset="1" stop-color="#25989C"/>
</linearGradient>
<linearGradient id="paint24_linear_3165_342" x1="1033.5" y1="117" x2="1033.5" y2="245.5" gradientUnits="userSpaceOnUse">
<stop stop-color="#0DB08C"/>
<stop offset="1" stop-color="#4B969B"/>
</linearGradient>
<linearGradient id="paint25_linear_3165_342" x1="1652.61" y1="70.0756" x2="1652.61" y2="282.303" gradientUnits="userSpaceOnUse">
<stop stop-color="#0DB08C"/>
<stop offset="1" stop-color="#4B969B"/>
</linearGradient>
</defs>
</svg>
